# Blender3D v246 OBJ File: 
# www.blender3d.org
mtllib hockeybord.mtl
o Cube_Cube.001
v 30.000000 -1.000000 -11.999999
v 30.000000 -0.999999 12.000000
v -30.000004 -0.999999 11.999998
v -29.999989 -1.000000 -12.000004
v 30.000015 0.999999 -11.999993
v 29.999981 1.000000 12.000007
v -30.000011 1.000000 11.999995
v -29.999998 0.999999 -12.000000
vt 1.000000 -0.000000
vt 1.000000 1.000000
vt 0.000000 1.000000
vt -0.000000 0.000000
vn -0.000000 -1.000000 0.000000
vn 0.000000 1.000000 -0.000000
vn 1.000000 0.000001 0.000001
vn -0.000000 -0.000001 1.000000
vn -1.000000 -0.000004 -0.000001
vn 0.000000 0.000002 -1.000000
usemtl Material_hockey-table.png
s off
f 1/1/1 2/2/1 3/3/1 4/4/1
f 5/1/2 8/2/2 7/3/2 6/4/2
f 1/1/3 5/2/3 6/3/3 2/4/3
f 2/1/4 6/2/4 7/3/4 3/4/4
f 3/1/5 7/2/5 8/3/5 4/4/5
f 5/1/6 1/2/6 4/3/6 8/4/6
