# Blender3D v249 OBJ File: 
# www.blender3d.org
mtllib test.mtl
v 0.707107 -1.000000 -0.707107
v 0.831470 -1.000000 -0.555570
v 0.923880 -1.000000 -0.382683
v 0.980785 -1.000000 -0.195090
v 1.000000 -1.000000 0.000000
v 0.980785 -1.000000 0.195090
v 0.923880 -1.000000 0.382683
v 0.831470 -1.000000 0.555570
v 0.707107 -1.000000 0.707107
v 0.555570 -1.000000 0.831470
v 0.382683 -1.000000 0.923880
v 0.195090 -1.000000 0.980785
v -0.000000 -1.000000 1.000000
v -0.195091 -1.000000 0.980785
v -0.382684 -1.000000 0.923879
v -0.555571 -1.000000 0.831469
v -0.707107 -1.000000 0.707106
v -0.831470 -1.000000 0.555570
v -0.923880 -1.000000 0.382683
v -0.980785 -1.000000 0.195090
v -1.000000 -1.000000 -0.000001
v -0.980785 -1.000000 -0.195091
v -0.923879 -1.000000 -0.382684
v -0.831469 -1.000000 -0.555571
v -0.707106 -1.000000 -0.707108
v -0.555569 -1.000000 -0.831470
v -0.382682 -1.000000 -0.923880
v -0.195089 -1.000000 -0.980785
v 0.000002 -1.000000 -1.000000
v 0.195092 -1.000000 -0.980785
v 0.382685 -1.000000 -0.923879
v 0.555572 -1.000000 -0.831469
v 0.707108 1.000000 -0.707106
v 0.831471 1.000000 -0.555569
v 0.923880 1.000000 -0.382682
v 0.980786 1.000000 -0.195088
v 1.000000 1.000000 0.000002
v 0.980785 1.000000 0.195092
v 0.923879 1.000000 0.382685
v 0.831469 1.000000 0.555571
v 0.707106 1.000000 0.707107
v 0.555570 1.000000 0.831470
v 0.382683 1.000000 0.923880
v 0.195090 1.000000 0.980785
v 0.000001 1.000000 1.000000
v -0.195089 1.000000 0.980785
v -0.382682 1.000000 0.923880
v -0.555569 1.000000 0.831470
v -0.707105 1.000000 0.707108
v -0.831468 1.000000 0.555572
v -0.923878 1.000000 0.382686
v -0.980785 1.000000 0.195094
v -1.000000 1.000000 0.000004
v -0.980786 1.000000 -0.195086
v -0.923881 1.000000 -0.382679
v -0.831472 1.000000 -0.555566
v -0.707111 1.000000 -0.707103
v -0.555575 1.000000 -0.831466
v -0.382689 1.000000 -0.923877
v -0.195097 1.000000 -0.980784
v -0.000007 1.000000 -1.000000
v 0.195083 1.000000 -0.980787
v 0.382676 1.000000 -0.923883
v 0.555564 1.000000 -0.831474
v 0.000000 -1.000000 0.000000
v 0.000000 1.000000 -0.000000
vn 0.000000 -1.000000 0.000000
vn -0.000000 1.000000 -0.000000
vn 0.634394 0.000000 -0.773010
vn 0.634391 0.000000 -0.773012
vn 0.471390 0.000000 -0.881925
vn 0.471398 -0.000001 -0.881920
vn 0.290277 0.000000 -0.956943
vn 0.290286 -0.000001 -0.956940
vn 0.098010 0.000000 -0.995185
vn 0.098019 -0.000000 -0.995185
vn -0.098024 0.000000 -0.995184
vn -0.098016 -0.000000 -0.995185
vn -0.290291 0.000000 -0.956939
vn -0.290283 -0.000000 -0.956941
vn -0.471402 0.000000 -0.881918
vn -0.471396 -0.000000 -0.881922
vn -0.634398 0.000000 -0.773007
vn -0.634392 -0.000000 -0.773011
vn -0.773014 0.000000 -0.634390
vn -0.773010 -0.000000 -0.634394
vn -0.881924 0.000000 -0.471392
vn -0.881921 -0.000000 -0.471398
vn -0.956942 0.000000 -0.290281
vn -0.956940 -0.000000 -0.290285
vn -0.995185 0.000000 -0.098013
vn -0.995185 -0.000000 -0.098018
vn -0.995184 0.000000 0.098021
vn -0.995185 -0.000000 0.098016
vn -0.956939 0.000000 0.290288
vn -0.956941 -0.000000 0.290284
vn -0.881920 0.000000 0.471399
vn -0.881922 -0.000000 0.471396
vn -0.773009 0.000000 0.634395
vn -0.773011 -0.000000 0.634393
vn -0.634392 0.000000 0.773012
vn -0.634394 -0.000000 0.773010
vn -0.471395 0.000000 0.881922
vn -0.471397 -0.000000 0.881921
vn -0.290284 0.000000 0.956941
vn -0.290285 -0.000000 0.956940
vn -0.098016 0.000000 0.995185
vn -0.098017 -0.000000 0.995185
vn 0.098017 0.000000 0.995185
vn 0.290285 0.000000 0.956940
vn 0.471396 0.000000 0.881921
vn 0.471397 0.000000 0.881921
vn 0.634393 -0.000000 0.773010
vn 0.634392 0.000000 0.773011
vn 0.773010 -0.000000 0.634393
vn 0.773010 0.000000 0.634394
vn 0.881921 -0.000000 0.471396
vn 0.881920 0.000000 0.471398
vn 0.956940 -0.000000 0.290285
vn 0.956940 0.000000 0.290286
vn 0.995185 -0.000000 0.098017
vn 0.995184 0.000000 0.098019
vn 0.995185 -0.000000 -0.098017
vn 0.995185 0.000000 -0.098015
vn 0.956940 -0.000000 -0.290285
vn 0.956941 0.000000 -0.290283
vn 0.881921 -0.000000 -0.471397
vn 0.881922 0.000000 -0.471395
vn 0.773010 -0.000000 -0.634393
vn 0.773012 0.000000 -0.634392
usemtl (null)
s off
f 65//1 1//1 2//1
f 66//2 34//2 33//2
f 65//1 2//1 3//1
f 66//2 35//2 34//2
f 65//1 3//1 4//1
f 66//2 36//2 35//2
f 65//1 4//1 5//1
f 66//2 37//2 36//2
f 65//1 5//1 6//1
f 66//2 38//2 37//2
f 65//1 6//1 7//1
f 66//2 39//2 38//2
f 65//1 7//1 8//1
f 66//2 40//2 39//2
f 65//1 8//1 9//1
f 66//2 41//2 40//2
f 65//1 9//1 10//1
f 66//2 42//2 41//2
f 65//1 10//1 11//1
f 66//2 43//2 42//2
f 65//1 11//1 12//1
f 66//2 44//2 43//2
f 65//1 12//1 13//1
f 66//2 45//2 44//2
f 65//1 13//1 14//1
f 66//2 46//2 45//2
f 65//1 14//1 15//1
f 66//2 47//2 46//2
f 65//1 15//1 16//1
f 66//2 48//2 47//2
f 65//1 16//1 17//1
f 66//2 49//2 48//2
f 65//1 17//1 18//1
f 66//2 50//2 49//2
f 65//1 18//1 19//1
f 66//2 51//2 50//2
f 65//1 19//1 20//1
f 66//2 52//2 51//2
f 65//1 20//1 21//1
f 66//2 53//2 52//2
f 65//1 21//1 22//1
f 66//2 54//2 53//2
f 65//1 22//1 23//1
f 66//2 55//2 54//2
f 65//1 23//1 24//1
f 66//2 56//2 55//2
f 65//1 24//1 25//1
f 66//2 57//2 56//2
f 65//1 25//1 26//1
f 66//2 58//2 57//2
f 65//1 26//1 27//1
f 66//2 59//2 58//2
f 65//1 27//1 28//1
f 66//2 60//2 59//2
f 65//1 28//1 29//1
f 66//2 61//2 60//2
f 65//1 29//1 30//1
f 66//2 62//2 61//2
f 65//1 30//1 31//1
f 66//2 63//2 62//2
f 65//1 31//1 32//1
f 66//2 64//2 63//2
f 32//1 1//1 65//1
f 66//2 33//2 64//2
f 33//3 1//3 32//3
f 33//4 32//4 64//4
f 31//5 63//5 64//5
f 31//6 64//6 32//6
f 30//7 62//7 63//7
f 30//8 63//8 31//8
f 29//9 61//9 62//9
f 29//10 62//10 30//10
f 28//11 60//11 61//11
f 28//12 61//12 29//12
f 27//13 59//13 60//13
f 27//14 60//14 28//14
f 26//15 58//15 59//15
f 26//16 59//16 27//16
f 25//17 57//17 58//17
f 25//18 58//18 26//18
f 24//19 56//19 57//19
f 24//20 57//20 25//20
f 23//21 55//21 56//21
f 23//22 56//22 24//22
f 22//23 54//23 55//23
f 22//24 55//24 23//24
f 21//25 53//25 54//25
f 21//26 54//26 22//26
f 20//27 52//27 53//27
f 20//28 53//28 21//28
f 19//29 51//29 52//29
f 19//30 52//30 20//30
f 18//31 50//31 51//31
f 18//32 51//32 19//32
f 17//33 49//33 50//33
f 17//34 50//34 18//34
f 16//35 48//35 49//35
f 16//36 49//36 17//36
f 15//37 47//37 48//37
f 15//38 48//38 16//38
f 14//39 46//39 47//39
f 14//40 47//40 15//40
f 13//41 45//41 46//41
f 13//42 46//42 14//42
f 12//43 44//43 45//43
f 12//43 45//43 13//43
f 11//44 43//44 44//44
f 11//44 44//44 12//44
f 10//45 42//45 43//45
f 10//46 43//46 11//46
f 9//47 41//47 10//47
f 41//48 42//48 10//48
f 8//49 40//49 9//49
f 40//50 41//50 9//50
f 7//51 39//51 8//51
f 39//52 40//52 8//52
f 6//53 38//53 7//53
f 38//54 39//54 7//54
f 5//55 37//55 6//55
f 37//56 38//56 6//56
f 4//57 36//57 5//57
f 36//58 37//58 5//58
f 3//59 35//59 4//59
f 35//60 36//60 4//60
f 2//61 34//61 3//61
f 34//62 35//62 3//62
f 1//63 33//63 2//63
f 33//64 34//64 2//64
